<?xml version="1.0" encoding="UTF-8" standalone="no"?>
<!-- Created with Inkscape (http://www.inkscape.org/) -->

<svg
   version="1.1"
   id="svg2"
   width="3200"
   height="3200"
   viewBox="0 0 3200 3200"
   xmlns="http://www.w3.org/2000/svg"
   xmlns:svg="http://www.w3.org/2000/svg">
  <defs
     id="defs6">
    <clipPath
       clipPathUnits="userSpaceOnUse"
       id="clipPath16">
      <path
         d="M 0,2400 H 2400 V 0 H 0 Z"
         id="path14" />
    </clipPath>
    <clipPath
       clipPathUnits="userSpaceOnUse"
       id="clipPath192">
      <path
         d="M 0,2400 H 2400 V 0 H 0 Z"
         id="path190" />
    </clipPath>
  </defs>
  <g
     id="g8"
     transform="matrix(1.3333333,0,0,-1.3333333,0,3200)">
    <g
       id="g10">
      <g
         id="g12"
         clip-path="url(#clipPath16)">
        <g
           id="g18"
           transform="translate(1817.0156,1088.0928)">
          <path
             d="m 0,0 c -15.248,-28.474 -37.182,-52.922 -63.674,-71.228 -1.735,-0.696 -3.402,-1.313 -5,-1.85 -2.099,-0.706 -4.574,-1.419 -7.416,-2.136 -21.473,-5.413 -43.431,-3.446 -62.827,4.634 -19.371,8.068 -36.203,22.241 -47.454,41.25 -7.403,12.53 -23.564,16.685 -36.094,9.281 -12.529,-7.403 -16.684,-23.563 -9.281,-36.093 17.212,-29.079 42.97,-50.763 72.617,-63.113 25.321,-10.548 53.471,-14.281 81.542,-9.993 v -15.151 c 0,-22.083 -9.053,-42.179 -23.639,-56.764 -14.586,-14.586 -34.68,-23.639 -56.764,-23.639 -9.674,0 -18.77,1.622 -27.035,4.596 -5.208,1.874 -10.186,4.287 -14.867,7.174 -2.882,33.306 -16.094,63.996 -36.672,88.532 -20.092,23.954 -47.19,42.022 -78.536,50.915 -13.666,38.224 -35.752,72.24 -64.046,99.881 -31.929,31.191 -71.803,54.289 -116.43,66.177 -14.068,3.702 -28.473,-4.702 -32.175,-18.769 -3.702,-14.068 4.701,-28.474 18.769,-32.176 35.649,-9.495 67.543,-27.986 93.125,-52.976 25.121,-24.541 44.115,-55.326 54.56,-89.986 2.181,-10.214 10.35,-18.581 21.269,-20.487 25.441,-4.497 47.424,-17.788 63.038,-36.404 15.627,-18.631 24.896,-42.627 24.896,-68.517 v -30.877 c 0,-29.27 -11.994,-55.899 -31.316,-75.222 -19.322,-19.323 -45.952,-31.317 -75.223,-31.317 -29.27,0 -55.9,11.994 -75.222,31.317 -19.323,19.323 -31.317,45.952 -31.317,75.222 h -52.8 v -182.648 h -29.71 c -9.839,139.184 -66.611,215.356 -125.747,257.049 -2.857,17.371 -0.405,34.836 6.467,50.378 8.07,18.254 22.251,33.787 41.087,43.313 12.985,6.549 18.202,22.386 11.653,35.371 -6.549,12.985 -22.386,18.203 -35.372,11.653 -30.122,-15.233 -52.771,-40.009 -65.63,-69.093 -5.922,-13.393 -9.762,-27.716 -11.299,-42.453 -43.546,18.066 -80.493,20.784 -90.422,21.19 -1.006,0.116 -2.027,0.178 -3.063,0.178 -20.669,0 -39.477,8.474 -53.131,22.128 -13.653,13.652 -22.127,32.461 -22.127,53.13 0,8.19 1.281,15.993 3.646,23.223 2.383,7.285 5.849,14.082 10.202,20.195 0.521,0.662 1.01,1.347 1.466,2.055 10.505,14.38 24.799,24.923 40.797,30.854 3.721,1.379 7.532,2.509 11.408,3.385 2.582,0.351 5.169,0.815 7.756,1.397 10.922,1.471 22.205,0.928 33.3,-1.831 14.125,-3.475 28.391,5.16 31.866,19.284 3.473,14.124 -5.16,28.392 -19.285,31.865 -17.934,4.461 -36.14,5.292 -53.708,2.833 l -0.112,-0.015 c -2.963,-0.417 -5.906,-0.928 -8.827,-1.531 -8.261,-0.682 -16.294,1.325 -23.072,5.403 -8.402,5.055 -14.88,13.333 -17.443,23.633 -0.554,2.231 -0.907,4.497 -1.056,6.77 -0.152,2.316 -0.096,4.66 0.169,7.006 1.595,14.466 -8.84,27.486 -23.306,29.08 -14.466,1.595 -27.486,-8.839 -29.081,-23.306 -0.603,-5.334 -0.727,-10.715 -0.375,-16.081 0.354,-5.408 1.19,-10.781 2.5,-16.05 4.723,-18.993 15.087,-35.108 28.864,-47.01 -5.754,-4.868 -11.156,-10.229 -16.138,-16.058 -1.35,-0.034 -2.904,-0.051 -4.668,-0.051 h -131.635 c -32.968,0 -63.157,12.427 -86.113,32.825 -11.617,10.322 -21.389,22.67 -28.742,36.47 24.654,-2.453 48.812,3.172 69.351,15.071 25.646,14.857 45.631,39.523 53.876,70.472 3.702,14.068 -4.702,28.473 -18.769,32.175 -14.067,3.702 -28.473,-4.701 -32.175,-18.769 -4.473,-16.794 -15.356,-30.2 -29.332,-38.297 -13.98,-8.098 -31.075,-10.857 -47.971,-6.356 -3.736,0.995 -7.259,2.269 -10.529,3.802 -3.275,1.536 -6.5,3.426 -9.635,5.648 -0.76,0.541 -1.54,1.035 -2.334,1.484 -19.191,11.59 -35.188,27.96 -46.291,47.419 -10.764,18.866 -16.926,40.733 -16.926,64.05 0,27.377 8.567,52.831 23.148,73.809 14.874,21.399 35.85,38.154 60.266,47.599 0.828,0.263 1.639,0.568 2.431,0.909 6.885,2.486 13.938,4.379 21.082,5.666 7.233,1.304 14.959,1.963 23.091,1.963 35.9,0 68.401,-14.55 91.924,-38.074 23.524,-23.524 38.074,-56.024 38.074,-91.925 0,-14.58 11.82,-26.4 26.4,-26.4 14.58,0 26.4,11.82 26.4,26.4 0,19.894 -3.181,39.046 -9.058,56.975 7.934,0.611 15.66,-1.26 22.246,-5.076 8.53,-4.941 15.169,-13.114 17.895,-23.345 3.701,-14.067 18.106,-22.47 32.174,-18.768 14.068,3.702 22.471,18.107 18.769,32.175 -6.496,24.386 -22.238,43.818 -42.437,55.519 -20.197,11.701 -44.832,15.703 -69.116,9.235 -1.339,-0.356 -2.675,-0.747 -4.007,-1.172 -5.996,8.465 -12.694,16.398 -20.008,23.713 -33.082,33.081 -78.781,53.543 -129.256,53.543 -5.477,0 -11.045,-0.274 -16.683,-0.818 3.699,6.01 8.176,11.502 13.288,16.331 14.269,13.48 33.498,21.773 54.582,21.773 h 2.334 v 0.081 c 11.709,-0.009 22.399,7.858 25.471,19.719 4.49,17.308 14.718,32.392 28.518,43.087 13.426,10.405 30.294,16.615 48.594,16.615 h 62.407 c 5.322,-27.309 18.741,-51.723 37.659,-70.641 24.836,-24.836 59.147,-40.198 97.041,-40.198 7.789,0 15.921,0.763 24.294,2.271 8.034,1.448 15.922,3.604 23.567,6.451 13.612,5.069 20.537,20.213 15.468,33.825 -5.068,13.612 -20.212,20.537 -33.824,15.468 -4.731,-1.761 -9.582,-3.09 -14.492,-3.975 -4.573,-0.824 -9.595,-1.24 -15.013,-1.24 -23.32,0 -44.431,9.45 -59.71,24.729 -13.799,13.799 -22.843,32.356 -24.466,53 8.973,13.8 21.121,25.432 35.415,33.863 15.6,9.203 33.813,14.493 53.271,14.493 10.821,0 21.04,-1.542 30.464,-4.405 9.66,-2.934 18.781,-7.257 27.132,-12.737 10.514,-7.589 25.278,-6.435 34.464,3.221 10.992,11.593 24.323,20.991 39.234,27.43 14.255,6.156 29.969,9.572 46.472,9.572 16.79,0 32.728,-3.516 47.116,-9.842 14.804,-6.508 28.023,-15.934 38.907,-27.527 6.393,-7.463 16.72,-11.038 26.848,-8.332 5.2,1.399 10.239,2.432 15.076,3.07 4.618,0.609 9.755,0.925 15.417,0.925 19.073,0 37.047,-4.523 52.903,-12.537 6.269,-3.169 12.223,-6.879 17.797,-11.066 -8.633,-5.422 -16.646,-11.752 -23.907,-18.863 -17.074,-16.724 -29.919,-37.826 -36.826,-61.633 -2.373,-8.181 -3.999,-16.468 -4.865,-24.762 -0.882,-8.431 -1.023,-16.811 -0.411,-25.037 1.025,-14.522 13.63,-25.465 28.153,-24.44 14.522,1.025 25.465,13.63 24.44,28.153 -0.405,5.458 -0.335,10.8 0.205,15.961 0.553,5.301 1.559,10.483 3.009,15.481 4.324,14.903 12.422,28.168 23.214,38.739 10.513,10.297 23.657,17.986 38.415,22.071 3.556,0.659 6.896,1.143 10.001,1.44 3.093,0.297 6.83,0.45 11.237,0.45 22.833,0 44.178,-6.541 62.254,-17.837 18.273,-11.419 33.246,-27.674 43.088,-46.929 0.303,-0.733 0.639,-1.45 1.005,-2.148 3.408,-8.686 3.215,-17.967 0.083,-26.117 -3.295,-8.57 -9.91,-15.908 -19.066,-19.979 -1.943,-0.864 -3.942,-1.548 -5.972,-2.045 -2.02,-0.495 -4.143,-0.814 -6.341,-0.95 -14.522,-0.854 -25.603,-13.321 -24.749,-27.844 0.854,-14.522 13.321,-25.604 27.843,-24.749 5.223,0.323 10.451,1.127 15.622,2.393 5.161,1.264 10.197,2.982 15.046,5.138 22.328,9.929 38.541,28.03 46.704,49.267 3.12,8.117 5.053,16.691 5.691,25.438 3.145,-1.801 6.031,-4.013 8.582,-6.564 7.309,-7.309 11.846,-17.368 11.846,-28.412 0,-1.713 -0.096,-3.333 -0.282,-4.859 -0.205,-1.685 -0.452,-3.143 -0.735,-4.376 -0.337,-1.279 -0.581,-2.599 -0.726,-3.955 -1.537,-14.466 8.943,-27.44 23.409,-28.978 15.867,-1.714 30.081,-9.434 40.331,-20.851 10.062,-11.207 16.202,-26.02 16.202,-42.224 0,-8.374 -1.576,-16.266 -4.435,-23.395 -0.358,-0.892 -0.735,-1.773 -1.132,-2.645 -5.418,2.759 -10.996,5.145 -16.697,7.144 -14.604,5.121 -29.926,7.791 -45.34,7.791 -35.605,0 -68.043,-13.562 -92.435,-35.801 -8.227,-0.66 -16.227,1.347 -22.979,5.409 -8.402,5.056 -14.881,13.333 -17.443,23.634 -0.555,2.231 -0.908,4.496 -1.057,6.769 -0.151,2.316 -0.096,4.662 0.17,7.007 1.595,14.466 -8.84,27.486 -23.307,29.081 -14.466,1.594 -27.486,-8.841 -29.08,-23.306 -0.604,-5.334 -0.727,-10.717 -0.376,-16.082 0.355,-5.408 1.19,-10.781 2.5,-16.051 6.085,-24.465 21.526,-44.158 41.573,-56.22 5.132,-3.087 10.566,-5.67 16.22,-7.705 -7.095,-16.567 -11.025,-34.812 -11.025,-53.974 0,-14.58 11.82,-26.4 26.4,-26.4 14.579,0 26.4,11.82 26.4,26.4 0,23.32 9.451,44.43 24.729,59.71 15.279,15.279 36.39,24.729 59.71,24.729 9.746,0 19.21,-1.61 28.015,-4.697 8.789,-3.083 17.012,-7.559 24.31,-13.302 0.46,-0.386 0.936,-0.76 1.429,-1.118 25.601,-18.691 46.684,-43.275 61.214,-71.722 C 15.719,157.944 23.557,127.086 23.557,94.313 23.557,60.169 15.023,28.056 0,0 m 48.663,209.033 c -14.24,27.882 -33.509,52.827 -56.589,73.63 2.591,4.551 4.884,9.294 6.853,14.2 5.386,13.429 8.354,27.946 8.354,42.99 0,29.678 -11.299,56.87 -29.814,77.491 -13.021,14.502 -29.663,25.733 -48.494,32.261 -1.15,23.832 -11.347,45.374 -27.206,61.233 -16.008,16.008 -37.805,26.247 -61.905,27.235 -13.892,22.369 -32.799,41.332 -55.119,55.279 -26.226,16.389 -57.123,25.88 -90.097,25.88 -4.84,0 -10.251,-0.293 -16.187,-0.861 l -0.181,-0.018 c -14.197,15.8 -31.274,28.955 -50.376,38.611 -23.159,11.706 -49.203,18.311 -76.621,18.311 -7.089,0 -14.516,-0.526 -22.222,-1.543 -2.283,-0.301 -4.525,-0.639 -6.728,-1.013 -13.587,12.295 -29.12,22.439 -46.054,29.883 -21.023,9.242 -44.155,14.379 -68.361,14.379 -23.835,0 -46.597,-4.96 -67.302,-13.902 -14.956,-6.459 -28.832,-15.016 -41.256,-25.295 -7.506,3.669 -15.352,6.768 -23.48,9.237 -14.722,4.472 -30.086,6.879 -45.727,6.879 -29.101,0 -56.491,-8 -80.083,-21.917 -19.666,-11.601 -36.654,-27.386 -49.74,-46.129 h -71.794 c -30.298,0 -58.344,-10.372 -80.769,-27.751 -17.742,-13.75 -31.927,-31.915 -40.881,-52.815 -28.391,-3.629 -54.052,-16.355 -73.943,-35.145 -19.967,-18.864 -34.11,-43.861 -39.357,-71.911 -28.759,-13.842 -53.353,-34.916 -71.336,-60.79 -20.558,-29.577 -32.636,-65.416 -32.636,-103.921 0,-32.606 8.714,-63.355 23.939,-90.038 13.616,-23.861 32.442,-44.394 54.893,-60.013 7.692,-40.41 28.766,-76.197 58.383,-102.512 32.331,-28.728 74.815,-46.23 121.175,-46.23 h 108.116 c -2.729,-10.372 -4.184,-21.183 -4.184,-32.251 0,-35.244 14.399,-67.264 37.596,-90.461 23.198,-23.199 55.219,-37.597 90.462,-37.597 0.527,0 1.05,0.018 1.57,0.048 20.853,-0.839 202.04,-15.146 218.36,-260.7 0.086,-12.897 5.376,-24.593 13.857,-33.075 8.552,-8.551 20.371,-13.859 33.394,-13.859 h 40.402 c 13.023,0 24.842,5.308 33.394,13.859 8.552,8.552 13.859,20.372 13.859,33.393 v 69.933 c 28.269,-25.5 65.662,-41.076 106.539,-41.076 43.846,0 83.687,17.918 112.554,46.785 25.984,25.985 43.095,60.863 46.253,99.548 13.337,-4.46 27.414,-6.878 41.837,-6.878 36.658,0 69.965,14.978 94.094,39.109 24.13,24.13 39.108,57.436 39.108,94.095 v 36.371 c 29.31,22.205 53.71,50.632 71.193,83.279 19.101,35.669 29.95,76.227 29.95,119.062 0,41.063 -9.997,80.073 -27.693,114.72"
             style="fill:#231f20;fill-opacity:1;fill-rule:nonzero;stroke:none"
             id="path20" />
        </g>
        <g
           id="g22"
           transform="translate(1377.9535,1434.6747)">
          <path
             d="M 0,0 C 4.384,2.414 8.838,4.702 13.384,6.796"
             style="fill:none;stroke:#000000;stroke-width:20;stroke-linecap:butt;stroke-linejoin:miter;stroke-miterlimit:10;stroke-dasharray:none;stroke-opacity:1"
             id="path24" />
        </g>
        <g
           id="g26"
           transform="translate(1346.5515,1414.864)">
          <path
             d="M 0,0 C 5.591,3.862 11.235,7.649 16.984,11.271"
             style="fill:none;stroke:#000000;stroke-width:20;stroke-linecap:butt;stroke-linejoin:miter;stroke-miterlimit:10;stroke-dasharray:none;stroke-opacity:1"
             id="path28" />
        </g>
        <g
           id="g30"
           transform="translate(1298.2542,1367.4631)">
          <path
             d="M 0,0 C 9.257,14.31 21.271,26.595 34.546,37.209"
             style="fill:none;stroke:#000000;stroke-width:20;stroke-linecap:butt;stroke-linejoin:miter;stroke-miterlimit:10;stroke-dasharray:none;stroke-opacity:1"
             id="path32" />
        </g>
        <g
           id="g34"
           transform="translate(1279.4434,1328.2607)">
          <path
             d="M 0,0 C 3.254,8.241 6.683,16.422 10.611,24.367"
             style="fill:none;stroke:#000000;stroke-width:20;stroke-linecap:butt;stroke-linejoin:miter;stroke-miterlimit:10;stroke-dasharray:none;stroke-opacity:1"
             id="path36" />
        </g>
        <g
           id="g38"
           transform="translate(1272.566,1286.2819)">
          <path
             d="M 0,0 C 0.147,8.736 1.06,17.457 2.756,26.029"
             style="fill:none;stroke:#000000;stroke-width:20;stroke-linecap:butt;stroke-linejoin:miter;stroke-miterlimit:10;stroke-dasharray:none;stroke-opacity:1"
             id="path40" />
        </g>
        <g
           id="g42"
           transform="translate(1278.5,1237.75)">
          <path
             d="M 0,0 C -4.254,9.952 -6.039,20.752 -6.375,31.523"
             style="fill:none;stroke:#000000;stroke-width:20;stroke-linecap:butt;stroke-linejoin:miter;stroke-miterlimit:10;stroke-dasharray:none;stroke-opacity:1"
             id="path44" />
        </g>
        <g
           id="g46"
           transform="translate(1331.3092,1222.6764)">
          <path
             d="m 0,0 c -5.767,-6.053 -13.561,-11.636 -22.234,-11.831 -8.217,-0.185 -16.564,5.197 -22.017,10.992"
             style="fill:none;stroke:#000000;stroke-width:20;stroke-linecap:butt;stroke-linejoin:miter;stroke-miterlimit:10;stroke-dasharray:none;stroke-opacity:1"
             id="path48" />
        </g>
        <g
           id="g50"
           transform="translate(1350.007,1263.4919)">
          <path
             d="M 0,0 C -2.403,-9.188 -5.053,-18.344 -8.91,-27.043"
             style="fill:none;stroke:#000000;stroke-width:20;stroke-linecap:butt;stroke-linejoin:miter;stroke-miterlimit:10;stroke-dasharray:none;stroke-opacity:1"
             id="path52" />
        </g>
        <g
           id="g54"
           transform="translate(1354.9183,1312.4303)">
          <path
             d="M 0,0 C 0.427,-10.764 -0.088,-21.571 -1.625,-32.235"
             style="fill:none;stroke:#000000;stroke-width:20;stroke-linecap:butt;stroke-linejoin:miter;stroke-miterlimit:10;stroke-dasharray:none;stroke-opacity:1"
             id="path56" />
        </g>
        <g
           id="g58"
           transform="translate(1344.5491,1360.4008)">
          <path
             d="M 0,0 C 3.672,-10.06 6.568,-20.418 8.395,-30.976"
             style="fill:none;stroke:#000000;stroke-width:20;stroke-linecap:butt;stroke-linejoin:miter;stroke-miterlimit:10;stroke-dasharray:none;stroke-opacity:1"
             id="path60" />
        </g>
        <g
           id="g62"
           transform="translate(1309.4923,1412.743)">
          <path
             d="M 0,0 C 11.245,-10.759 20.665,-23.353 27.968,-37.089"
             style="fill:none;stroke:#000000;stroke-width:20;stroke-linecap:butt;stroke-linejoin:miter;stroke-miterlimit:10;stroke-dasharray:none;stroke-opacity:1"
             id="path64" />
        </g>
        <g
           id="g66"
           transform="translate(1275,1437)">
          <path
             d="M 0,0 C 7.644,-3.823 14.926,-8.362 21.756,-13.497"
             style="fill:none;stroke:#000000;stroke-width:20;stroke-linecap:butt;stroke-linejoin:miter;stroke-miterlimit:10;stroke-dasharray:none;stroke-opacity:1"
             id="path68" />
        </g>
        <g
           id="g70"
           transform="translate(1229.0288,1443.1993)">
          <path
             d="M 0,0 C 9.912,2.354 20.297,2.124 30.168,-0.325"
             style="fill:none;stroke:#000000;stroke-width:20;stroke-linecap:butt;stroke-linejoin:miter;stroke-miterlimit:10;stroke-dasharray:none;stroke-opacity:1"
             id="path72" />
        </g>
        <g
           id="g74"
           transform="translate(1190.4036,1423.9365)">
          <path
             d="M 0,0 C 6.612,6.15 14.367,11.033 22.696,14.503"
             style="fill:none;stroke:#000000;stroke-width:20;stroke-linecap:butt;stroke-linejoin:miter;stroke-miterlimit:10;stroke-dasharray:none;stroke-opacity:1"
             id="path76" />
        </g>
        <g
           id="g78"
           transform="translate(1162.5845,1378.2306)">
          <path
             d="M 0,0 C 3.997,11.725 9.413,23.059 16.719,33.096"
             style="fill:none;stroke:#000000;stroke-width:20;stroke-linecap:butt;stroke-linejoin:miter;stroke-miterlimit:10;stroke-dasharray:none;stroke-opacity:1"
             id="path80" />
        </g>
        <g
           id="g82"
           transform="translate(1147.7869,1334.365)">
          <path
             d="M 0,0 C 3.019,9.059 5.812,18.19 8.836,27.247"
             style="fill:none;stroke:#000000;stroke-width:20;stroke-linecap:butt;stroke-linejoin:miter;stroke-miterlimit:10;stroke-dasharray:none;stroke-opacity:1"
             id="path84" />
        </g>
        <g
           id="g86"
           transform="translate(1136.5807,1291.8761)">
          <path
             d="M 0,0 C 0.456,8.641 2.392,17.493 5.329,25.624"
             style="fill:none;stroke:#000000;stroke-width:20;stroke-linecap:butt;stroke-linejoin:miter;stroke-miterlimit:10;stroke-dasharray:none;stroke-opacity:1"
             id="path88" />
        </g>
        <g
           id="g90"
           transform="translate(1144.584,1241.616)">
          <path
             d="M 0,0 C -5.366,10.422 -8.104,21.999 -8.618,33.679"
             style="fill:none;stroke:#000000;stroke-width:20;stroke-linecap:butt;stroke-linejoin:miter;stroke-miterlimit:10;stroke-dasharray:none;stroke-opacity:1"
             id="path92" />
        </g>
        <g
           id="g94"
           transform="translate(1183.7411,1211.6581)">
          <path
             d="M 0,0 C -12.374,-1.288 -22.404,6.382 -30.079,15.251"
             style="fill:none;stroke:#000000;stroke-width:20;stroke-linecap:butt;stroke-linejoin:miter;stroke-miterlimit:10;stroke-dasharray:none;stroke-opacity:1"
             id="path96" />
        </g>
        <g
           id="g98"
           transform="translate(1216.9747,1239.6152)">
          <path
             d="M 0,0 C -2.783,-9.534 -8.611,-18.516 -17.307,-23.613"
             style="fill:none;stroke:#000000;stroke-width:20;stroke-linecap:butt;stroke-linejoin:miter;stroke-miterlimit:10;stroke-dasharray:none;stroke-opacity:1"
             id="path100" />
        </g>
        <g
           id="g102"
           transform="translate(1222.9464,1282.8942)">
          <path
             d="M 0,0 C 0.585,-8.82 0.223,-17.724 -1.307,-26.436"
             style="fill:none;stroke:#000000;stroke-width:20;stroke-linecap:butt;stroke-linejoin:miter;stroke-miterlimit:10;stroke-dasharray:none;stroke-opacity:1"
             id="path104" />
        </g>
        <g
           id="g106"
           transform="translate(1213.9165,1321.9404)">
          <path
             d="M 0,0 C 2.645,-7.269 4.887,-14.691 6.52,-22.254"
             style="fill:none;stroke:#000000;stroke-width:20;stroke-linecap:butt;stroke-linejoin:miter;stroke-miterlimit:10;stroke-dasharray:none;stroke-opacity:1"
             id="path108" />
        </g>
        <g
           id="g110"
           transform="translate(1191.6072,1362.5702)">
          <path
             d="M 0,0 C 5.5,-8.242 10.78,-16.649 15.355,-25.445"
             style="fill:none;stroke:#000000;stroke-width:20;stroke-linecap:butt;stroke-linejoin:miter;stroke-miterlimit:10;stroke-dasharray:none;stroke-opacity:1"
             id="path112" />
        </g>
        <g
           id="g114"
           transform="translate(1158.9105,1404.957)">
          <path
             d="M 0,0 C 7.23,-9.099 14.632,-18.062 21.693,-27.296"
             style="fill:none;stroke:#000000;stroke-width:20;stroke-linecap:butt;stroke-linejoin:miter;stroke-miterlimit:10;stroke-dasharray:none;stroke-opacity:1"
             id="path116" />
        </g>
        <g
           id="g118"
           transform="translate(1136.2949,1427.1953)">
          <path
             d="M 0,0 C 4.404,-2.361 8.025,-5.904 11.333,-9.594"
             style="fill:none;stroke:#000000;stroke-width:20;stroke-linecap:butt;stroke-linejoin:miter;stroke-miterlimit:10;stroke-dasharray:none;stroke-opacity:1"
             id="path120" />
        </g>
        <g
           id="g122"
           transform="translate(1092.9772,1439.9531)">
          <path
             d="M 0,0 C 9.993,1.739 20.139,0.059 29.309,-4.166"
             style="fill:none;stroke:#000000;stroke-width:20;stroke-linecap:butt;stroke-linejoin:miter;stroke-miterlimit:10;stroke-dasharray:none;stroke-opacity:1"
             id="path124" />
        </g>
        <g
           id="g126"
           transform="translate(1061.6239,1417.4961)">
          <path
             d="M 0,0 C 3.725,6.565 9.68,11.46 16.023,15.374"
             style="fill:none;stroke:#000000;stroke-width:20;stroke-linecap:butt;stroke-linejoin:miter;stroke-miterlimit:10;stroke-dasharray:none;stroke-opacity:1"
             id="path128" />
        </g>
        <g
           id="g130"
           transform="translate(1042.1503,1374.6538)">
          <path
             d="M 0,0 C 2.912,9.608 6.291,19.113 10.736,28.129"
             style="fill:none;stroke:#000000;stroke-width:20;stroke-linecap:butt;stroke-linejoin:miter;stroke-miterlimit:10;stroke-dasharray:none;stroke-opacity:1"
             id="path132" />
        </g>
        <g
           id="g134"
           transform="translate(1034.0868,1330.8278)">
          <path
             d="M 0,0 C 0.605,9.093 1.883,18.14 3.763,27.057"
             style="fill:none;stroke:#000000;stroke-width:20;stroke-linecap:butt;stroke-linejoin:miter;stroke-miterlimit:10;stroke-dasharray:none;stroke-opacity:1"
             id="path136" />
        </g>
        <g
           id="g138"
           transform="translate(1037.1995,1284.2549)">
          <path
             d="M 0,0 C -1.934,9.622 -3.075,19.4 -3.399,29.208"
             style="fill:none;stroke:#000000;stroke-width:20;stroke-linecap:butt;stroke-linejoin:miter;stroke-miterlimit:10;stroke-dasharray:none;stroke-opacity:1"
             id="path140" />
        </g>
        <g
           id="g142"
           transform="translate(1052.7177,1239.3728)">
          <path
             d="M 0,0 C -4.625,9.137 -8.441,18.683 -11.402,28.487"
             style="fill:none;stroke:#000000;stroke-width:20;stroke-linecap:butt;stroke-linejoin:miter;stroke-miterlimit:10;stroke-dasharray:none;stroke-opacity:1"
             id="path144" />
        </g>
        <g
           id="g146"
           transform="translate(1073.5729,1207.3015)">
          <path
             d="M 0,0 C -4.473,5.481 -8.617,11.23 -12.405,17.206"
             style="fill:none;stroke:#000000;stroke-width:20;stroke-linecap:butt;stroke-linejoin:miter;stroke-miterlimit:10;stroke-dasharray:none;stroke-opacity:1"
             id="path148" />
        </g>
        <g
           id="g150"
           transform="translate(1408.5724,1495.385)">
          <path
             d="M 0,0 76.213,-71.937"
             style="fill:none;stroke:#ed1c24;stroke-width:20;stroke-linecap:butt;stroke-linejoin:miter;stroke-miterlimit:10;stroke-dasharray:none;stroke-opacity:1"
             id="path152" />
        </g>
        <g
           id="g154"
           transform="translate(1477.8915,1507.7031)">
          <path
             d="M 0,0 -57.83,-96.573"
             style="fill:none;stroke:#ed1c24;stroke-width:20;stroke-linecap:butt;stroke-linejoin:miter;stroke-miterlimit:10;stroke-dasharray:none;stroke-opacity:1"
             id="path156" />
        </g>
        <g
           id="g158"
           transform="translate(1073.4149,1197.3829)">
          <path
             d="M 0,0 C 12.869,0 12.89,20 0,20 -12.869,20 -12.89,0 0,0"
             style="fill:#000000;fill-opacity:1;fill-rule:nonzero;stroke:none"
             id="path160" />
        </g>
        <g
           id="g162"
           transform="translate(1073.3191,1197.5426)">
          <path
             d="M 0,0 C 12.869,0 12.89,20 0,20 -12.869,20 -12.89,0 0,0"
             style="fill:#000000;fill-opacity:1;fill-rule:nonzero;stroke:none"
             id="path164" />
        </g>
        <g
           id="g166"
           transform="translate(1073.6383,1197.1277)">
          <path
             d="M 0,0 C 12.869,0 12.89,20 0,20 -12.869,20 -12.89,0 0,0"
             style="fill:#000000;fill-opacity:1;fill-rule:nonzero;stroke:none"
             id="path168" />
        </g>
        <g
           id="g170"
           transform="translate(1399.3674,1445.7808)">
          <path
             d="M 0,0 C 6.082,3.031 12.205,5.98 18.41,8.751"
             style="fill:none;stroke:#000000;stroke-width:20;stroke-linecap:butt;stroke-linejoin:miter;stroke-miterlimit:10;stroke-dasharray:none;stroke-opacity:1"
             id="path172" />
        </g>
        <g
           id="g174"
           transform="translate(1416.3319,1443.9392)">
          <path
             d="M 0,0 C 12.869,0 12.89,20 0,20 -12.869,20 -12.89,0 0,0"
             style="fill:#000000;fill-opacity:1;fill-rule:nonzero;stroke:none"
             id="path176" />
        </g>
        <g
           id="g178"
           transform="translate(1134.2554,1167)">
          <path
             d="m 0,0 c 0,-15.417 -12.498,-27.915 -27.915,-27.915 -15.417,0 -27.915,12.498 -27.915,27.915 0,15.417 12.498,27.915 27.915,27.915 C -12.498,27.915 0,15.417 0,0 Z"
             style="fill:none;stroke:#ed1c24;stroke-width:17;stroke-linecap:butt;stroke-linejoin:miter;stroke-miterlimit:10;stroke-dasharray:none;stroke-opacity:1"
             id="path180" />
        </g>
      </g>
    </g>
    <text
       xml:space="preserve"
       transform="matrix(1,0,0,-1,462.894,683.499)"
       style="font-variant:normal;font-weight:normal;font-stretch:normal;font-size:126px;font-family:GreekC;-inkscape-font-specification:GreekC;writing-mode:lr-tb;fill:#000000;fill-opacity:1;fill-rule:nonzero;stroke:none"
       id="text184"><tspan
         x="0 112.266 162.79201 266.23801 356.45401 468.72 558.93597"
         y="0"
         id="tspan182">MINDMAP</tspan></text>
    <g
       id="g186">
      <g
         id="g188"
         clip-path="url(#clipPath192)">
        <g
           id="g194"
           transform="translate(565.3921,685.5264)">
          <path
             d="M 0,0 H -12.243 V 90.445 H 0 v 2.028 H -18.455 L -46.327,8.801 -74.259,92.473 h -18.395 v -2.028 h 12.181 V 0 h -12.181 v -2.027 h 26.455 v 2.03 H -78.442 V 85.397 L -49.28,-2.027 h 1.476 l 29.101,87.301 V 0.003 h -12.243 v -2.03 l 30.946,0 z"
             style="fill:none;stroke:#000000;stroke-width:4;stroke-linecap:butt;stroke-linejoin:miter;stroke-miterlimit:10;stroke-dasharray:none;stroke-opacity:1"
             id="path196" />
        </g>
        <g
           id="g198"
           transform="translate(615.9028,685.5264)">
          <path
             d="M 0,0 H -12.243 V 90.445 H 0 v 2.028 h -30.885 v -2.028 h 12.182 V 0 H -30.885 V -2.027 H 0 Z"
             style="fill:none;stroke:#000000;stroke-width:4;stroke-linecap:butt;stroke-linejoin:miter;stroke-miterlimit:10;stroke-dasharray:none;stroke-opacity:1"
             id="path200" />
        </g>
        <g
           id="g202"
           transform="translate(719.3237,777.999)">
          <path
             d="m 0,0 h -26.455 v -2.03 h 12.182 V -81.272 L -65.646,0 h -18.149 v -2.027 h 12.182 V -92.473 H -83.795 V -94.5 h 26.455 v 2.03 h -12.243 v 86.933 l 55.74,-88.963 h 1.6 v 92.473 l 12.243,0 z"
             style="fill:none;stroke:#000000;stroke-width:4;stroke-linecap:butt;stroke-linejoin:miter;stroke-miterlimit:10;stroke-dasharray:none;stroke-opacity:1"
             id="path204" />
        </g>
        <g
           id="g206"
           transform="translate(774.8794,777.999)">
          <path
             d="m 0,0 h -1.354 l -36.114,-94.5 h 73.582 z m -32.792,-88.102 29.962,78.75 29.9,-78.75 z"
             style="fill:none;stroke:#000000;stroke-width:4;stroke-linecap:butt;stroke-linejoin:miter;stroke-miterlimit:10;stroke-dasharray:none;stroke-opacity:1"
             id="path208" />
        </g>
        <g
           id="g210"
           transform="translate(921.7974,685.5264)">
          <path
             d="M 0,0 H -12.243 V 90.445 H 0 v 2.028 H -18.455 L -46.327,8.801 -74.259,92.473 h -18.395 v -2.028 h 12.181 V 0 h -12.181 v -2.027 h 26.455 v 2.03 H -78.442 V 85.397 L -49.28,-2.027 h 1.476 l 29.101,87.301 V 0.003 h -12.243 v -2.03 l 30.946,0 z"
             style="fill:none;stroke:#000000;stroke-width:4;stroke-linecap:butt;stroke-linejoin:miter;stroke-miterlimit:10;stroke-dasharray:none;stroke-opacity:1"
             id="path212" />
        </g>
        <g
           id="g214"
           transform="translate(1016.3589,685.5264)">
          <path
             d="m 0,0 h -8.06 l -30.884,92.473 h -1.477 L -71.306,0 h -8.059 v -2.027 h 26.455 v 2.03 h -16.119 l 8.059,24.425 h 38.206 l 8.06,-24.425 h -11.751 v -2.03 l 26.455,0 z m -60.354,26.458 18.395,55.187 18.396,-55.187 z"
             style="fill:none;stroke:#000000;stroke-width:4;stroke-linecap:butt;stroke-linejoin:miter;stroke-miterlimit:10;stroke-dasharray:none;stroke-opacity:1"
             id="path216" />
        </g>
        <g
           id="g218"
           transform="translate(1124.271,685.5264)">
          <path
             d="M 0,0 H -12.243 V 90.445 H 0 v 2.028 h -92.654 v -2.028 h 12.181 V 0 h -12.181 v -2.027 h 30.884 v 2.03 h -12.243 v 90.562 h 55.31 V 0.003 h -12.243 v -2.03 l 30.946,0 z"
             style="fill:none;stroke:#000000;stroke-width:4;stroke-linecap:butt;stroke-linejoin:miter;stroke-miterlimit:10;stroke-dasharray:none;stroke-opacity:1"
             id="path220" />
        </g>
      </g>
    </g>
  </g>
</svg>
